<svg width="122" height="32" viewBox="0 0 122 32" fill="none" xmlns="http://www.w3.org/2000/svg">
    <path d="M117 0H31V32H117C119.761 32 122 29.7614 122 27V5C122 2.23858 119.761 0 117 0Z" fill="#0F1418"/>

    <path d="M31 0H5C2.23858 0 0 2.23858 0 5V27C0 29.7614 2.23858 32 5 32H31V0Z" fill="#BB1E0F"/>

    <path d="M9.36,21.43v-1.52H2.17c-.38,0-.54-.07-.53-.5.02-2.76.02-5.52,0-8.28,0-.41.13-.52.52-.52h26.8c.13,0,.25.02.41.03v9.23h-13.79v1.54h-6.22s0,.02,0,.02ZM27.83,12.2h-9.24v6.18h3.15v-4.57h1.47v4.58h1.52v-4.58h1.56v4.57h1.52v-6.18s.02,0,.02,0ZM10.89,12.19v7.29c0,.15.13.43.21.44.96.03,1.92.02,2.92.02v-1.51c.89,0,1.72-.02,2.56,0,.37,0,.5-.1.49-.49-.02-1.8-.01-3.61-.01-5.42,0-.11-.02-.21-.04-.33h-6.15s.02,0,.02,0ZM7.84,13.8v4.58h1.56v-6.17H3.21v6.21c.89,0,1.76-.02,2.63,0,.37.01.47-.12.47-.47-.02-1.21,0-2.42,0-3.62,0-.17.01-.34.02-.53h1.52,0Z"
          style="fill:#fff; stroke-width:0px;"/>
    <path d="M27.83,12.2v6.18h-1.52v-4.57h-1.56v4.58h-1.52v-4.58h-1.47v4.57h-3.15v-6.18h9.24s-.02,0-.02,0Z"
          style="fill:#cc3738; stroke-width:0px;"/>
    <path d="M10.89,12.19h6.15c.01.12.04.23.04.33,0,1.8,0,3.61.01,5.42,0,.39-.12.5-.49.49-.84-.02-1.67,0-2.56,0v1.51c-1.01,0-1.97.01-2.92-.02-.08,0-.21-.28-.21-.44-.01-1.74,0-3.48,0-5.23v-2.06s-.02,0-.02,0ZM14.03,16.77h1.42v-2.97h-1.42v2.97Z"
          style="fill:#cc3738; stroke-width:0px;"/>
    <path d="M7.84,13.8h-1.52c0,.18-.02.36-.02.53,0,1.21-.01,2.42,0,3.62,0,.35-.09.48-.47.47-.87-.03-1.73,0-2.63,0v-6.21h6.19v6.17h-1.56v-4.58h0Z"
          style="fill:#cc3738; stroke-width:0px;"/>
    <path d="M14.03,16.77v-2.97h1.42v2.97h-1.42Z" style="fill:#fff; stroke-width:0px;"/>

    <text font-weight="bold" xml:space="preserve" text-anchor="start" font-family="'arial'" font-size="14px" stroke-width="0px" id="svg_6" y="20.64282" x="57" fill="#ffffff">NPM</text>

    <path d="M117 0H5C2.23858 0 0 2.23858 0 5V27C0 29.7614 2.23858 32 5 32H117C119.761 32 122 29.7614 122 27V5C122 2.23858 119.761 0 117 0Z" fill="url(#paint0_linear)"/>
    <defs>
        <linearGradient id="paint0_linear" x1="0" y1="0" x2="0" y2="32" gradientUnits="userSpaceOnUse">
            <stop stop-color="#BBBBBB" stop-opacity="0.1"/>
            <stop offset="1" stop-opacity="0.1"/>
        </linearGradient>
    </defs>
</svg>
